<svg width="456" height="140" viewBox="0 0 456 140" fill="none" xmlns="http://www.w3.org/2000/svg">
<rect x="168" width="208" height="140" fill="#FCA311"/>
<path d="M232.698 34.5269C239.06 34.5269 244.829 36.0113 250.003 38.9803C255.262 41.8644 259.376 45.9785 262.345 51.3226C265.314 56.5818 266.799 62.7318 266.799 69.7724C266.799 76.813 265.314 83.0054 262.345 88.3495C259.376 93.6087 255.262 97.7228 250.003 100.692C244.829 103.576 239.06 105.018 232.698 105.018C223.961 105.018 217.09 102.261 212.086 96.7473V128.685H192.236V35.5448H211.195V43.4337C216.115 37.4958 223.283 34.5269 232.698 34.5269ZM229.263 88.7312C234.353 88.7312 238.509 87.0346 241.733 83.6416C245.041 80.1637 246.695 75.5406 246.695 69.7724C246.695 64.0042 245.041 59.4235 241.733 56.0305C238.509 52.5526 234.353 50.8136 229.263 50.8136C224.173 50.8136 219.974 52.5526 216.666 56.0305C213.443 59.4235 211.831 64.0042 211.831 69.7724C211.831 75.5406 213.443 80.1637 216.666 83.6416C219.974 87.0346 224.173 88.7312 229.263 88.7312Z" fill="black"/>
<path d="M320.198 12.5269C326.56 12.5269 332.329 14.0113 337.503 16.9803C342.762 19.8644 346.876 23.9785 349.845 29.3226C352.814 34.5818 354.299 40.7318 354.299 47.7724C354.299 54.813 352.814 61.0054 349.845 66.3495C346.876 71.6087 342.762 75.7228 337.503 78.6918C332.329 81.5759 326.56 83.0179 320.198 83.0179C311.461 83.0179 304.59 80.2611 299.586 74.7473V106.685H279.736V13.5448H298.695V21.4337C303.615 15.4958 310.783 12.5269 320.198 12.5269ZM316.763 66.7312C321.853 66.7312 326.009 65.0346 329.233 61.6416C332.541 58.1637 334.195 53.5406 334.195 47.7724C334.195 42.0042 332.541 37.4235 329.233 34.0305C326.009 30.5526 321.853 28.8136 316.763 28.8136C311.673 28.8136 307.474 30.5526 304.166 34.0305C300.943 37.4235 299.331 42.0042 299.331 47.7724C299.331 53.5406 300.943 58.1637 304.166 61.6416C307.474 65.0346 311.673 66.7312 316.763 66.7312Z" fill="black"/>
<path d="M29.483 55.9641H0.981232V39.1684H78.5977V55.9641H50.0959V128.236H29.483V55.9641Z" fill="black"/>
<path d="M121.628 127.941C114.417 127.941 107.928 126.456 102.16 123.487C96.4765 120.433 92.0231 116.235 88.7997 110.89C85.5763 105.546 83.9646 99.4813 83.9646 92.6951C83.9646 85.909 85.5763 79.8439 88.7997 74.4998C92.0231 69.1557 96.4765 64.9992 102.16 62.0303C107.928 58.9765 114.417 57.4496 121.628 57.4496C128.838 57.4496 135.285 58.9765 140.968 62.0303C146.652 64.9992 151.105 69.1557 154.328 74.4998C157.552 79.8439 159.163 85.909 159.163 92.6951C159.163 99.4813 157.552 105.546 154.328 110.89C151.105 116.235 146.652 120.433 140.968 123.487C135.285 126.456 128.838 127.941 121.628 127.941ZM121.628 111.654C126.717 111.654 130.874 109.957 134.097 106.564C137.405 103.086 139.06 98.4634 139.06 92.6951C139.06 86.9269 137.405 82.3463 134.097 78.9532C130.874 75.4753 126.717 73.7364 121.628 73.7364C116.538 73.7364 112.339 75.4753 109.031 78.9532C105.723 82.3463 104.069 86.9269 104.069 92.6951C104.069 98.4634 105.723 103.086 109.031 106.564C112.339 109.957 116.538 111.654 121.628 111.654Z" fill="black"/>
<path d="M417.88 127.284C410.67 127.284 404.181 125.799 398.412 122.83C392.729 119.777 388.276 115.578 385.052 110.234C381.829 104.889 380.217 98.8243 380.217 92.0382C380.217 85.252 381.829 79.1869 385.052 73.8428C388.276 68.4987 392.729 64.3422 398.412 61.3733C404.181 58.3195 410.67 56.7926 417.88 56.7926C425.09 56.7926 431.537 58.3195 437.221 61.3733C442.904 64.3422 447.357 68.4987 450.581 73.8428C453.804 79.1869 455.416 85.252 455.416 92.0382C455.416 98.8243 453.804 104.889 450.581 110.234C447.357 115.578 442.904 119.777 437.221 122.83C431.537 125.799 425.09 127.284 417.88 127.284ZM417.88 110.997C422.97 110.997 427.126 109.3 430.35 105.907C433.658 102.429 435.312 97.8064 435.312 92.0382C435.312 86.2699 433.658 81.6893 430.35 78.2962C427.126 74.8183 422.97 73.0794 417.88 73.0794C412.79 73.0794 408.592 74.8183 405.283 78.2962C401.975 81.6893 400.321 86.2699 400.321 92.0382C400.321 97.8064 401.975 102.429 405.283 105.907C408.592 109.3 412.79 110.997 417.88 110.997Z" fill="black"/>
</svg>
